<svg xmlns="http://www.w3.org/2000/svg" viewBox="0 0 32 32" id="padlock">
  <g>
    <path d="M24.63 30.75H7.38a2.13 2.13 0 0 1-2.12-2.12V17.38a2.13 2.13 0 0 1 2.13-2.12h17.24a2.13 2.13 0 0 1 2.13 2.13v11.24a2.13 2.13 0 0 1-2.13 2.12Zm-17.25-14a.63.63 0 0 0-.62.63v11.25a.63.63 0 0 0 .63.63h17.24a.63.63 0 0 0 .63-.62V17.38a.63.63 0 0 0-.62-.62Z"></path>
    <path d="M23.75 16.75H8.25V9a7.75 7.75 0 0 1 15.5 0Zm-14-1.5h12.5V9a6.25 6.25 0 0 0-12.5 0Z"></path>
    <path d="M24.63 16H7.38A1.37 1.37 0 0 0 6 17.38v11.25A1.37 1.37 0 0 0 7.38 30h17.25A1.37 1.37 0 0 0 26 28.63V17.38A1.37 1.37 0 0 0 24.63 16Zm-7.87 8.08v2.43a.75.75 0 0 1-1.5 0v-2.43a2.75 2.75 0 1 1 1.5 0Z"></path>
  </g>
</svg>
